<?xml version="1.0" encoding="UTF-8"?>
<svg id="Livello_1" xmlns="http://www.w3.org/2000/svg" version="1.1" viewBox="0 0 800 800">
  <!-- Generator: Adobe Illustrator 30.1.0, SVG Export Plug-In . SVG Version: 2.1.1 Build 136)  -->
  <defs>
    <style>
      .st0 {
        fill: #f6a709;
      }
    </style>
  </defs>
  <path class="st0" d="M400,733.3c-45,0-88.6-8.8-129.8-26.2-39.7-16.8-75.3-40.8-105.9-71.4-30.6-30.6-54.6-66.2-71.4-105.9-17.4-41.1-26.2-84.8-26.2-129.8s8.8-88.6,26.2-129.8c16.8-39.7,40.8-75.3,71.4-105.9,30.6-30.6,66.2-54.6,105.9-71.4,41.1-17.4,84.8-26.2,129.8-26.2s88.6,8.8,129.8,26.2c39.7,16.8,75.3,40.8,105.9,71.4,30.6,30.6,54.6,66.2,71.4,105.9,17.4,41.1,26.2,84.8,26.2,129.8s-8.8,88.6-26.2,129.8c-16.8,39.7-40.8,75.3-71.4,105.9-30.6,30.6-66.2,54.6-105.9,71.4-41.1,17.4-84.8,26.2-129.8,26.2ZM400,133.3c-147,0-266.7,119.6-266.7,266.7s119.6,266.7,266.7,266.7,266.7-119.6,266.7-266.7-119.6-266.7-266.7-266.7Z"/>
  <path class="st0" d="M500,533.3c-8.5,0-17.1-3.3-23.6-9.8l-76.4-76.4-76.4,76.4c-13,13-34.1,13-47.1,0-13-13-13-34.1,0-47.1l76.4-76.4-76.4-76.4c-13-13-13-34.1,0-47.1,13-13,34.1-13,47.1,0l76.4,76.4,76.4-76.4c13-13,34.1-13,47.1,0,13,13,13,34.1,0,47.1l-76.4,76.4,76.4,76.4c13,13,13,34.1,0,47.1-6.5,6.5-15,9.8-23.6,9.8Z"/>
</svg>