<svg width="78" height="80" viewBox="0 0 78 80" fill="none" xmlns="http://www.w3.org/2000/svg">
<path d="M71.4747 69.9036L65.1011 71.574L61.3383 57.8402C64.3145 56.3827 66.6857 53.9661 68.052 50.9978C69.4183 48.0296 69.6961 44.6914 68.8386 41.5462C64.2886 24.9485 54.8347 10.3919 54.4339 9.78097C54.1078 9.28241 53.6298 8.8966 53.0674 8.67799C52.505 8.45939 51.8866 8.41904 51.2994 8.56262L43.4056 10.4943C43.4056 7.58088 43.3406 5.7516 43.3297 5.52206C43.3009 4.91516 43.0728 4.3335 42.6793 3.86339C42.2857 3.39328 41.7477 3.05977 41.145 2.91233L29.5894 0.087183C29.0023 -0.0564061 28.3839 -0.0160508 27.8215 0.202552C27.2591 0.421155 26.7811 0.806966 26.455 1.30553C26.0542 1.91647 16.6003 16.466 12.0503 33.0884C11.1928 36.2336 11.4706 39.5718 12.8369 42.5401C14.2032 45.5083 16.5744 47.9249 19.5506 49.3825L15.7878 63.0986L9.41417 61.4282C8.67385 61.2343 7.88509 61.336 7.22142 61.7108C6.55775 62.0857 6.07353 62.703 5.87528 63.427C5.67703 64.151 5.78099 64.9223 6.1643 65.5713C6.5476 66.2204 7.17884 66.6939 7.91917 66.8878L25.2525 71.4292C25.4965 71.4919 25.7477 71.5239 26 71.5246C26.7015 71.5253 27.3793 71.2765 27.9069 70.8245C28.4345 70.3725 28.776 69.7481 28.8675 69.068C28.959 68.3879 28.7944 67.6984 28.4043 67.1283C28.0142 66.5582 27.4253 66.1463 26.7475 65.9696L21.3669 64.557L25.1297 50.8233C25.4222 50.841 25.7111 50.8515 26 50.8515C28.866 50.8437 31.6652 50.0047 34.0436 48.4407C36.4219 46.8767 38.2724 44.658 39.3611 42.0653C39.7872 44.3149 40.3 46.5926 40.9175 48.8527C41.7442 51.8585 43.561 54.514 46.0867 56.4081C48.6123 58.3023 51.7061 59.3294 54.8889 59.3305C55.1778 59.3305 55.4667 59.3305 55.7592 59.3023L59.5219 73.036L54.1414 74.4486C53.4667 74.6279 52.8814 75.0403 52.4941 75.6095C52.1067 76.1786 51.9435 76.8658 52.0348 77.5437C52.126 78.2215 52.4656 78.844 52.9904 79.2957C53.5152 79.7474 54.1898 79.9976 54.8889 80C55.1412 79.9994 55.3924 79.9673 55.6364 79.9046L72.9697 75.3632C73.7101 75.1693 74.3413 74.6958 74.7246 74.0468C75.1079 73.3978 75.2119 72.6264 75.0136 71.9024C74.8154 71.1784 74.3311 70.5611 73.6675 70.1863C73.0038 69.8114 72.215 69.7098 71.4747 69.9036ZM50.635 14.5484C51.6389 16.2082 53.2458 18.9768 55.0406 22.48L43.3333 25.3475C43.1817 21.8161 43.1961 18.9027 43.2431 16.9462C43.2431 16.7485 43.2611 16.5507 43.2719 16.353L50.635 14.5484ZM30.2539 6.07296L37.6097 7.87046C37.6314 9.38192 37.6097 11.6385 37.5339 14.393C37.5122 14.8203 37.4761 15.5195 37.4508 16.4554C37.4508 16.8085 37.4147 17.1617 37.3931 17.5148L25.5269 14.6332C27.4444 10.8333 29.1922 7.82808 30.2539 6.07296ZM34.3669 38.9471C33.7459 41.0924 32.2855 42.912 30.3021 44.0115C28.3187 45.1111 25.9721 45.4021 23.7709 44.8214C21.5696 44.2407 19.691 42.8352 18.5421 40.9093C17.3932 38.9835 17.0666 36.6925 17.6331 34.5328C19.0555 29.5099 20.8663 24.6 23.0497 19.8456L36.9814 23.2499C36.4952 28.5367 35.6215 33.7826 34.3669 38.9471ZM46.5147 47.3943C45.1 42.0446 44.1565 36.5862 43.6944 31.079L57.5647 27.6889C59.8696 32.6423 61.7713 37.7658 63.2522 43.0118C63.5657 44.0926 63.6564 45.2236 63.5189 46.3389C63.3814 47.4543 63.0186 48.5318 62.4514 49.5088C61.8843 50.4858 61.1242 51.3428 60.2153 52.03C59.3064 52.7171 58.2669 53.2207 57.1572 53.5114C56.0476 53.8021 54.8899 53.8742 53.7515 53.7234C52.6131 53.5727 51.5167 53.2021 50.526 52.6332C49.5354 52.0643 48.6703 51.3085 47.981 50.4097C47.2918 49.511 46.7921 48.4871 46.5111 47.3978L46.5147 47.3943ZM60.9592 9.74212C60.7892 9.41012 60.6877 9.0486 60.6607 8.67823C60.6336 8.30787 60.6815 7.93592 60.8016 7.58367C60.9217 7.23142 61.1116 6.90576 61.3604 6.62534C61.6093 6.34491 61.9122 6.1152 62.2519 5.94936L68.0297 3.12422C68.3693 2.95819 68.7389 2.8592 69.1176 2.83288C69.4962 2.80656 69.8765 2.85344 70.2366 2.97084C70.5968 3.08823 70.9297 3.27385 71.2165 3.51709C71.5033 3.76032 71.7383 4.05642 71.9081 4.38847C72.0778 4.72052 72.1791 5.08202 72.206 5.45232C72.2329 5.82263 72.185 6.19449 72.0649 6.54668C71.9449 6.89887 71.7551 7.22449 71.5063 7.50495C71.2576 7.78541 70.9548 8.01521 70.6153 8.18123L64.8375 11.0064C64.498 11.1726 64.1283 11.2718 63.7496 11.2983C63.3709 11.3247 62.9906 11.2779 62.6303 11.1605C62.2701 11.043 61.9371 10.8573 61.6504 10.614C61.3636 10.3706 61.1287 10.0743 60.9592 9.74212ZM78 19.7785C78 20.5277 77.6956 21.2463 77.1539 21.7761C76.6121 22.306 75.8773 22.6036 75.1111 22.6036H69.3333C68.5672 22.6036 67.8324 22.306 67.2906 21.7761C66.7488 21.2463 66.4445 20.5277 66.4445 19.7785C66.4445 19.0292 66.7488 18.3106 67.2906 17.7808C67.8324 17.251 68.5672 16.9533 69.3333 16.9533H75.1111C75.8773 16.9533 76.6121 17.251 77.1539 17.7808C77.6956 18.3106 78 19.0292 78 19.7785ZM6.08111 1.56332C6.25069 1.23111 6.48558 0.934844 6.77234 0.691472C7.05909 0.4481 7.39209 0.262396 7.75229 0.144978C8.11249 0.0275598 8.49283 -0.0192684 8.87155 0.00717192C9.25027 0.0336122 9.61995 0.132802 9.95945 0.299069L15.7372 3.12422C16.0768 3.29024 16.3795 3.52004 16.6283 3.8005C16.877 4.08095 17.0668 4.40657 17.1868 4.75876C17.3069 5.11095 17.3548 5.48281 17.3279 5.85312C17.301 6.22343 17.1998 6.58493 17.03 6.91698C16.8602 7.24902 16.6252 7.54512 16.3385 7.78836C16.0517 8.0316 15.7187 8.21721 15.3586 8.33461C14.6312 8.5717 13.8374 8.51653 13.1517 8.18123L7.37389 5.35608C7.03418 5.19024 6.73123 4.96054 6.48237 4.68011C6.23351 4.39968 6.04361 4.07403 5.92354 3.72177C5.80348 3.36952 5.75559 2.99758 5.78263 2.62721C5.80966 2.25684 5.91109 1.89532 6.08111 1.56332ZM8.66667 19.7785H2.88889C2.12271 19.7785 1.38791 19.4808 0.846136 18.951C0.304364 18.4212 0 17.7026 0 16.9533C0 16.204 0.304364 15.4854 0.846136 14.9556C1.38791 14.4258 2.12271 14.1282 2.88889 14.1282H8.66667C9.43285 14.1282 10.1676 14.4258 10.7094 14.9556C11.2512 15.4854 11.5556 16.204 11.5556 16.9533C11.5556 17.7026 11.2512 18.4212 10.7094 18.951C10.1676 19.4808 9.43285 19.7785 8.66667 19.7785Z" fill="#F6A709"/>
</svg>
