<svg width="68" height="80" viewBox="0 0 68 80" fill="none" xmlns="http://www.w3.org/2000/svg">
<path d="M64.9091 0H12.3636C9.0846 0 5.93986 1.2967 3.62122 3.60484C1.30259 5.91298 0 9.04349 0 12.3077V76.9231C0 77.7391 0.325649 78.5218 0.905307 79.0988C1.48496 79.6758 2.27115 80 3.09091 80H58.7273C59.547 80 60.3332 79.6758 60.9129 79.0988C61.4925 78.5218 61.8182 77.7391 61.8182 76.9231C61.8182 76.107 61.4925 75.3244 60.9129 74.7474C60.3332 74.1703 59.547 73.8462 58.7273 73.8462H6.18182C6.18182 72.2141 6.83311 70.6488 7.99243 69.4947C9.15175 68.3407 10.7241 67.6923 12.3636 67.6923H64.9091C65.7289 67.6923 66.515 67.3681 67.0947 66.7911C67.6744 66.2141 68 65.4314 68 64.6154V3.07692C68 2.26087 67.6744 1.47824 67.0947 0.90121C66.515 0.324175 65.7289 0 64.9091 0ZM30.9091 6.15385H49.4545V33.8462L42.0325 28.3077C41.4975 27.9082 40.8467 27.6923 40.178 27.6923C39.5092 27.6923 38.8584 27.9082 38.3234 28.3077L30.9091 33.8462V6.15385ZM61.8182 61.5385H12.3636C10.1928 61.5355 8.05995 62.1048 6.18182 63.1885V12.3077C6.18182 10.6756 6.83311 9.11034 7.99243 7.95627C9.15175 6.8022 10.7241 6.15385 12.3636 6.15385H24.7273V40C24.7273 40.5714 24.8871 41.1316 25.1889 41.6176C25.4907 42.1037 25.9225 42.4965 26.4359 42.7521C26.9493 43.0076 27.5241 43.1158 28.0958 43.0645C28.6675 43.0132 29.2135 42.8044 29.6727 42.4615L40.1818 34.6154L50.6948 42.4615C51.2287 42.8602 51.878 43.0761 52.5455 43.0769C53.3652 43.0769 54.1514 42.7528 54.7311 42.1757C55.3107 41.5987 55.6364 40.8161 55.6364 40V6.15385H61.8182V61.5385Z" fill="#F6A709"/>
</svg>
