<svg width="78" height="80" viewBox="0 0 78 80" fill="none" xmlns="http://www.w3.org/2000/svg">
<path d="M52.0001 0C45.1066 0.0068639 38.4973 2.81857 33.6228 7.81803C28.7484 12.8175 26.0069 19.5962 26.0003 26.6665C26.0029 27.8333 26.0789 28.9987 26.2278 30.1554L1.12704 65.2664C0.305459 66.406 -0.088656 67.8109 0.0167741 69.2241C0.122204 70.6374 0.720133 71.9644 1.7012 72.9626L6.86145 78.2552C7.83469 79.2614 9.12858 79.8747 10.5065 79.9828C11.8843 80.0909 13.2541 79.6867 14.3653 78.8441L48.6021 53.0923C49.7285 53.2473 50.8636 53.3277 52.0001 53.3331C58.8957 53.3331 65.5089 50.5236 70.3848 45.5226C75.2607 40.5217 78 33.7389 78 26.6665C78 19.5941 75.2607 12.8114 70.3848 7.81045C65.5089 2.8095 58.8957 0 52.0001 0ZM72.2223 26.6665C72.2275 31.1436 70.813 35.5009 68.1923 39.0813L39.8994 10.0592C42.9048 7.75696 46.4754 6.35749 50.2119 6.01728C53.9484 5.67706 57.7036 6.40951 61.0575 8.13273C64.4114 9.85594 67.2318 12.502 69.2035 15.7751C71.1752 19.0481 72.2204 22.8192 72.2223 26.6665ZM10.9492 74.0737L5.77813 68.77L28.2175 37.4072C30.8469 43.4956 35.5918 48.3622 41.528 51.059L10.9492 74.0737ZM31.778 26.6665C31.7723 22.1905 33.1868 17.8342 35.808 14.2555L64.0973 43.2702C61.0921 45.5712 57.5221 46.9697 53.7865 47.3095C50.0509 47.6493 46.2967 46.9169 42.9436 45.1943C39.5904 43.4717 36.7704 40.8266 34.7986 37.5547C32.8268 34.2828 31.781 30.513 31.778 26.6665ZM30.9294 48.2738C31.4708 48.8294 31.7749 49.5828 31.7749 50.3683C31.7749 51.1538 31.4708 51.9071 30.9294 52.4627L28.0405 55.4257C27.7749 55.7124 27.4561 55.9417 27.1027 56.1C26.7494 56.2583 26.3687 56.3425 25.9831 56.3476C25.5976 56.3526 25.2149 56.2785 24.8577 56.1295C24.5005 55.9805 24.1761 55.7596 23.9034 55.48C23.6307 55.2003 23.4154 54.8675 23.2702 54.5012C23.1249 54.1348 23.0526 53.7424 23.0575 53.3469C23.0624 52.9515 23.1445 52.561 23.2989 52.1986C23.4533 51.8362 23.6768 51.5092 23.9564 51.2368L26.8452 48.2738C27.1134 47.9976 27.432 47.7783 27.7829 47.6285C28.1338 47.4788 28.5101 47.4015 28.8902 47.4011C29.2703 47.4008 29.6467 47.4774 29.9978 47.6265C30.349 47.7756 30.668 47.9943 30.9366 48.2701L30.9294 48.2738Z" fill="#F6A709"/>
</svg>
