<svg width="80" height="80" viewBox="0 0 80 80" fill="none" xmlns="http://www.w3.org/2000/svg">
<path d="M40 0C32.0888 0 24.3552 2.34596 17.7772 6.74121C11.1992 11.1365 6.07234 17.3836 3.04484 24.6927C0.0173313 32.0017 -0.774802 40.0444 0.768607 47.8036C2.31202 55.5628 6.12164 62.6902 11.7157 68.2843C17.3098 73.8784 24.4372 77.688 32.1964 79.2314C39.9556 80.7748 47.9983 79.9827 55.3073 76.9552C62.6164 73.9277 68.8635 68.8008 73.2588 62.2228C77.654 55.6448 80 47.9112 80 40C79.9888 29.3948 75.7709 19.2271 68.2719 11.7281C60.7729 4.22907 50.6052 0.0111993 40 0ZM69.4308 56.7H56.5L52.9385 51.7923L57.7962 37.6461L63.5654 35.7654L73.6577 43.5077C73.1801 48.1509 71.7406 52.6438 69.4308 56.7ZM6.35386 43.5077L16.4269 35.7692L22.1962 37.65L27.0539 51.7961L23.5 56.7H10.5692C8.25673 52.6444 6.81455 48.1515 6.33463 43.5077H6.35386ZM10.2 24.0308L12.3192 31.1846L6.42694 35.6808C6.94933 31.6013 8.21651 27.6525 10.1654 24.0308H10.2ZM32.6923 49.2308L28.2846 36.4038L40 28.35L51.7154 36.4038L47.3077 49.2308H32.6923ZM67.7192 31.1846L69.8385 24.0308C71.7874 27.6525 73.0545 31.6013 73.5769 35.6808L67.7192 31.1846ZM65.3346 17.5769L61.6769 29.9154L55.8808 31.7961L43.0769 22.9961V17.0038L54.2654 9.31154C58.4795 11.2823 62.2453 14.0952 65.3308 17.5769H65.3346ZM46.95 6.87307L40 11.65L33.05 6.87307C37.6337 5.91409 42.3663 5.91409 46.95 6.87307ZM25.7346 9.31154L36.9231 17.0038V22.9961L24.1231 31.7961L18.3269 29.9154L14.6692 17.5769C17.7547 14.0952 21.5205 11.2823 25.7346 9.31154ZM15.0577 62.8538H22.8923L25.65 70.65C21.6455 68.7654 18.0474 66.1172 15.0577 62.8538ZM33.0769 73.1269L28.5077 60.2731L32.0577 55.3846H47.9423L51.4923 60.2731L46.9423 73.1269C42.3638 74.0864 37.6362 74.0864 33.0577 73.1269H33.0769ZM54.3692 70.65L57.1269 62.8538H64.9615C61.9662 66.1192 58.3614 68.7676 54.35 70.65H54.3692Z" fill="#F6A709"/>
</svg>
